<svg width="1600" height="900" viewBox="0 0 1600 900" xmlns="http://www.w3.org/2000/svg">
    <defs>
    <pattern id="stitchCap" width="14" height="14" patternUnits="userSpaceOnUse" patternTransform="rotate(45)">
      <line x1="0" y1="0" x2="0" y2="14" stroke="#1C1A17" stroke-width="1.4" stroke-dasharray="4 4" opacity="0.12"/>
    </pattern></defs>
    <rect width="1600" height="900" fill="#F7F3EC"/>
    <rect width="1600" height="900" fill="url(%23stitchCap)"/>
    <rect x="14" y="14" width="1572" height="872" fill="none" stroke="#1C1A17" stroke-width="1" opacity="0.18"/>
    <!-- dragon silhouette: sinuous serpent body -->
    <path d="M 160.0 765.0
             C 96.0 585.0, 320.0 558.0, 352.0 450.0
             C 384.0 342.0, 176.0 315.0, 224.00000000000003 198.0
             C 256.0 126.00000000000001, 416.0 90.0, 512.0 126.00000000000001"
          fill="none" stroke="#7C2A2A" stroke-width="2.5" opacity="0.55" stroke-linecap="round"/>
    <!-- scale ticks along the spine -->
    <g stroke="#B8912E" stroke-width="1.2" opacity="0.55">
      <line x1="176.0" y1="720.0" x2="256.0" y2="702.0"/>
      <line x1="160.0" y1="648.0" x2="256.0" y2="630.0"/>
      <line x1="224.00000000000003" y1="558.0" x2="320.0" y2="540.0"/>
      <line x1="336.0" y1="468.0" x2="432.0" y2="459.0"/>
      <line x1="320.0" y1="378.0" x2="416.0" y2="378.0"/>
      <line x1="208.0" y1="270.0" x2="304.0" y2="252.00000000000003"/>
    </g>
    <!-- horn -->
    <path d="M 496.0 117.0 C 576.0 72.0, 608.0 18.0, 576.0 -18.0"
          fill="none" stroke="#5B6B4F" stroke-width="2" opacity="0.6" stroke-linecap="round"/>
    <!-- lightning accent, sparse -->
    <path d="M 1056.0 162.0 L 1152.0 324.0 L 1088.0 333.0 L 1216.0 522.0"
          fill="none" stroke="#7C2A2A" stroke-width="1.4" opacity="0.4"/>
    <text x="992.0" y="792.0" text-anchor="middle" font-family="JetBrains Mono, monospace" font-size="22.400000000000002" letter-spacing="2" fill="#1C1A17" opacity="0.55">AVANT-GUARD COLLECTION — SS 2026</text>
    <text x="992.0" y="126.00000000000001" text-anchor="middle" font-family="Georgia, serif" font-style="italic" font-size="51.2" fill="#7C2A2A">Prophetic's Halo</text>
  </svg>